HIERARCHY
ROOT root
{
	OFFSET 0.000000 0.000000 0.000000
	CHANNELS 6 Xposition Yposition Zposition Zrotation Yrotation Xrotation
	JOINT lhip
	{
		OFFSET 0.058581 -0.082280 -0.017664
		CHANNELS 3 Zrotation Yrotation Xrotation
		JOINT lknee
		{
			OFFSET 0.043451 -0.386469 0.008037
			CHANNELS 3 Zrotation Yrotation Xrotation
			JOINT lankle
			{
				OFFSET -0.014790 -0.426874 -0.037428
				CHANNELS 3 Zrotation Yrotation Xrotation
				JOINT ltoe
				{
					OFFSET 0.041054 -0.060286 0.122042
					CHANNELS 3 Zrotation Yrotation Xrotation
					End Site
					{
						OFFSET 0.000000 0.000000 0.000000
					}
				}
			}
		}
	}
	JOINT rhip
	{
		OFFSET -0.060310 -0.090513 -0.013543
		CHANNELS 3 Zrotation Yrotation Xrotation
		JOINT rknee
		{
			OFFSET -0.043257 -0.383688 -0.004843
			CHANNELS 3 Zrotation Yrotation Xrotation
			JOINT rankle
			{
				OFFSET 0.019056 -0.420046 -0.034562
				CHANNELS 3 Zrotation Yrotation Xrotation
				JOINT rtoe
				{
					OFFSET -0.034840 -0.062106 0.130323
					CHANNELS 3 Zrotation Yrotation Xrotation
					End Site
					{
						OFFSET 0.000000 0.000000 0.000000
					}
				}
			}
		}
	}
	JOINT lowerback
	{
		OFFSET 0.004439 0.124404 -0.038385
		CHANNELS 3 Zrotation Yrotation Xrotation
		JOINT upperback
		{
			OFFSET 0.004488 0.137956 0.026820
			CHANNELS 3 Zrotation Yrotation Xrotation
			JOINT chest
			{
				OFFSET -0.002265 0.056032 0.002855
				CHANNELS 3 Zrotation Yrotation Xrotation
				JOINT lowerneck
				{
					OFFSET -0.013390 0.211636 -0.033468
					CHANNELS 3 Zrotation Yrotation Xrotation
					JOINT upperneck
					{
						OFFSET 0.010113 0.088937 0.050410
						CHANNELS 3 Zrotation Yrotation Xrotation
						End Site
						{
							OFFSET 0.000000 0.000000 0.000000
						}
					}
				}
				JOINT lclavicle
				{
					OFFSET 0.071702 0.114000 -0.018898
					CHANNELS 3 Zrotation Yrotation Xrotation
					JOINT lshoulder
					{
						OFFSET 0.122921 0.045205 -0.019046
						CHANNELS 3 Zrotation Yrotation Xrotation
						JOINT lelbow
						{
							OFFSET 0.255332 -0.015649 -0.022946
							CHANNELS 3 Zrotation Yrotation Xrotation
							JOINT lwrist
							{
								OFFSET 0.265709 0.012698 -0.007375
								CHANNELS 3 Zrotation Yrotation Xrotation
								End Site
								{
									OFFSET 0.000000 0.000000 0.000000
								}
							}
						}
					}
				}
				JOINT rclavicle
				{
					OFFSET -0.082954 0.112472 -0.023707
					CHANNELS 3 Zrotation Yrotation Xrotation
					JOINT rshoulder
					{
						OFFSET -0.113228 0.046853 -0.008472
						CHANNELS 3 Zrotation Yrotation Xrotation
						JOINT relbow
						{
							OFFSET -0.260127 -0.014369 -0.031269
							CHANNELS 3 Zrotation Yrotation Xrotation
							JOINT rwrist
							{
								OFFSET -0.269108 0.006794 -0.006027
								CHANNELS 3 Zrotation Yrotation Xrotation
								End Site
								{
									OFFSET 0.000000 0.000000 0.000000
								}
							}
						}
					}
				}
			}
		}
	}
}
MOTION
Frames: 11
Frame Time: 0.033333
-1.979122 0.727597 0.987833 86.792831 -1.580072 86.968845 1.110790 -3.213447 -20.103602 0.892593 4.313696 7.076495 0.630397 9.496671 -5.789212 0.000000 -0.000000 0.000000 6.314882 -6.718350 10.853361 -5.311131 -4.875725 2.339272 0.143542 -11.082416 -17.888280 0.000000 -0.000000 0.000000 -3.876201 7.054458 12.190236 -0.841746 -3.491045 -4.155282 -0.293048 0.942925 3.269295 5.412868 0.586625 -9.273578 5.862641 -10.995537 7.402292 -23.323504 -4.217123 -1.149754 -57.332168 -10.104657 14.284212 -0.746856 -20.198743 15.715367 0.997678 -2.308662 -3.405889 22.140510 6.177506 -1.665889 63.274746 5.323276 19.192232 -9.260084 25.468712 9.315356 2.230507 0.435197 -3.169456 
-1.964886 0.731158 0.987161 86.754006 -1.514492 87.578127 0.811126 -3.484302 -19.529650 0.745564 4.236581 7.038450 0.847754 9.664186 -5.625641 0.000000 -0.000000 0.000000 5.821761 -6.864974 10.956275 -5.174517 -4.362426 2.976627 0.412339 -11.100361 -17.806611 0.000000 -0.000000 0.000000 -3.631331 7.134879 11.415559 -0.928776 -3.308521 -4.156102 -0.458458 0.938022 3.244171 5.845085 0.251933 -9.053324 5.824038 -10.877017 8.158813 -23.385647 -3.602870 -1.285124 -57.200504 -10.009330 14.213797 -0.774714 -19.786800 14.885095 0.822484 -2.428067 -4.394810 21.795278 5.839415 -1.897569 62.460873 5.638377 19.319561 -8.928300 24.773560 9.877551 2.873178 0.305762 -2.503262 
-1.948647 0.736238 0.986896 86.632869 -1.828497 88.296374 -0.152682 -3.885697 -18.859029 1.155219 4.490567 6.009866 0.989963 9.821185 -4.531634 0.000000 -0.000000 0.000000 5.043230 -6.644188 11.169451 -5.336572 -3.991965 3.346021 0.921781 -11.157875 -16.810106 0.000000 -0.000000 0.000000 -3.562640 7.022133 10.457442 -1.143895 -3.232179 -4.170456 -0.702510 0.930834 3.122938 6.159417 0.020587 -8.257684 5.843595 -10.445091 8.659021 -23.592063 -3.009390 -1.321643 -56.904055 -9.850675 14.096758 -0.403164 -19.174842 14.393943 0.070900 -2.299039 -4.214020 21.709982 5.509296 -2.074526 61.631609 6.162872 19.319570 -9.072448 23.918605 9.890215 3.658040 -0.159969 -1.468630 
-1.932756 0.741650 0.988659 86.338029 -1.957318 88.607907 -0.746029 -3.915616 -18.184852 1.230683 4.562607 5.941262 0.826597 10.251829 -3.554906 0.000000 -0.000000 0.000000 4.452574 -6.310324 11.726673 -5.569417 -3.913193 3.779321 1.512905 -11.192182 -15.117507 0.000000 -0.000000 0.000000 -3.161598 6.994924 10.614050 -1.314715 -3.161936 -5.035384 -0.952318 0.970319 3.082687 6.260915 -0.146601 -7.658051 5.583894 -10.019509 9.428978 -23.840871 -2.274429 -1.634448 -56.415048 -9.805777 13.775664 -0.754070 -18.300867 14.561712 -0.912163 -2.416527 -3.186503 21.609318 4.713962 -2.424871 60.849379 6.419080 19.250102 -8.929564 24.078141 10.305220 3.764388 -0.490662 -0.531421 
-1.914749 0.747734 0.991899 86.495485 -2.035799 88.839690 -1.427529 -4.062881 -17.453625 1.191299 4.557154 6.688270 0.797892 10.084144 -3.691780 0.000000 -0.000000 0.000000 3.596076 -6.539716 12.427727 -5.600054 -3.863343 4.284257 2.124773 -11.040026 -13.098722 0.000000 -0.000000 0.000000 -2.781058 6.891767 9.856711 -1.250790 -3.438305 -4.740041 -1.113158 0.758247 2.909118 6.218379 -0.107123 -6.790450 5.175924 -9.055348 9.769817 -23.844908 -2.049813 -1.462900 -56.259233 -9.671532 13.632883 -0.879663 -17.491399 15.338213 -2.837292 -2.409832 -3.110376 21.323658 4.066044 -2.716955 60.358459 6.781346 18.997051 -9.308525 24.435841 10.096614 5.410986 -0.929839 -0.515811 
-1.895555 0.754514 0.995338 86.506461 -2.122018 89.018245 -2.140240 -4.598151 -15.558892 1.123331 4.336172 5.526867 1.055699 10.535862 -3.718755 0.000000 -0.000000 0.000000 2.462026 -6.552835 12.961940 -5.266314 -3.804574 5.327839 2.838026 -10.791240 -10.925998 0.000000 -0.000000 0.000000 -2.610052 6.777892 8.892588 -1.015707 -3.641141 -4.173803 -1.085877 0.526937 2.681507 6.249365 0.005308 -5.699810 4.750976 -8.052602 9.631056 -23.709239 -1.872858 -1.328788 -56.402196 -9.503125 13.750754 -1.173453 -17.203448 15.758777 -4.198351 -1.933864 -2.949549 20.933041 3.649199 -2.823078 59.894660 7.148186 18.848162 -9.675440 24.987868 8.980566 6.050349 -1.120691 -0.905228 
-1.875587 0.762170 0.998222 86.442444 -1.914178 89.053118 -2.851431 -3.879420 -13.686314 0.931494 3.492460 4.612664 2.610551 10.540378 -3.744947 0.000000 -0.000000 0.000000 1.390414 -6.495026 13.390447 -4.254744 -1.343347 6.963181 2.329358 -11.818524 -7.776991 0.000000 -0.000000 0.000000 -1.919568 5.852520 8.072539 -1.207567 -3.137807 -3.752367 -0.752442 -0.442347 2.711624 6.274183 -1.052336 -5.165162 3.506377 -4.992477 9.772315 -24.813900 -1.738101 -0.694298 -55.303400 -8.997862 11.627994 -1.368294 -18.608490 15.760105 -5.274093 -0.870382 1.414499 21.265343 4.624873 -2.505260 57.905322 7.777716 18.504575 -8.749476 25.288704 5.628038 4.353728 0.108146 -0.073758 
-1.854527 0.769952 0.999836 86.178195 -1.801356 88.908898 -3.714439 -3.252476 -11.519863 0.976762 2.935437 3.559515 3.533761 10.999340 -4.439330 0.000000 -0.000000 0.000000 0.287803 -6.244528 13.248292 -3.787121 -0.962926 10.104167 3.082387 -11.778750 -6.039084 0.000000 -0.000000 0.000000 -1.532937 5.215488 7.328027 -0.961517 -3.052718 -3.069964 -0.625778 -0.688853 2.447734 6.319631 -1.000215 -4.411177 2.815774 -3.802468 9.585367 -25.421811 -1.896266 -0.424444 -54.597303 -8.713794 11.344326 -2.023356 -19.155327 16.003212 -5.413933 -0.827961 2.354742 21.681008 4.762719 -2.590087 56.389303 8.347965 18.114977 -8.191072 25.717841 4.498339 3.903445 0.322453 0.429677 
-1.833724 0.777422 1.000538 86.169095 -1.692188 88.915201 -4.625421 -2.813346 -9.633738 1.105294 2.243526 2.750856 4.619647 11.086469 -4.418556 0.000000 -0.000000 0.000000 -0.804051 -5.880177 12.095201 -3.151767 -1.189693 14.679998 3.558045 -11.504023 -3.779966 0.000000 -0.000000 0.000000 -1.327756 4.413697 6.768522 -0.535698 -3.166329 -2.912691 -0.494680 -0.844500 2.232160 6.329155 -0.891560 -3.493966 2.337899 -2.827833 9.422494 -25.538615 -2.076032 -0.002025 -54.382033 -8.586271 11.412451 -2.548679 -19.524419 16.553942 -5.861960 -1.080564 2.478146 21.891479 4.740584 -2.603524 55.526363 8.787124 17.956580 -8.272662 26.278265 4.015193 4.089221 0.413102 0.974978 
-1.812682 0.784865 1.000179 86.448159 -1.634564 88.520693 -5.549453 -2.939929 -7.472463 1.129781 1.294038 2.373632 6.180590 11.762611 -5.109137 0.000000 -0.000000 0.000000 -1.925419 -5.352438 10.645269 -2.428287 -1.754515 20.534229 4.059220 -11.491821 -0.828388 0.000000 -0.000000 0.000000 -1.196932 3.568410 6.467001 -0.118555 -3.380760 -2.506437 -0.367843 -1.225934 2.073191 6.355459 -0.756360 -2.884156 1.867328 -1.908326 9.288815 -25.462232 -2.620637 0.569001 -54.441258 -8.717783 11.450945 -2.545498 -20.061478 16.501794 -6.463565 -0.866704 2.270582 21.922786 4.864036 -2.627948 55.199594 9.233164 17.793179 -8.868961 26.801069 3.065633 4.782472 0.803718 0.901040 
-1.791172 0.791950 0.999022 86.948663 -1.711376 87.818328 -6.463406 -2.703784 -4.806603 0.942558 0.097328 1.776945 7.566630 12.146725 -6.016590 0.000000 -0.000000 0.000000 -3.213694 -5.126131 8.455949 -2.172016 -2.646554 27.903606 4.613406 -11.466488 3.321689 0.000000 -0.000000 0.000000 -1.342119 2.641395 6.451063 0.256091 -3.534371 -2.089813 -0.240816 -1.568612 2.003318 6.511274 -0.698940 -2.297328 1.488950 -1.072796 9.071761 -25.286730 -3.424605 1.137697 -54.485041 -9.050688 11.516352 -2.438256 -20.218724 16.716534 -7.330386 -0.592789 2.430872 22.023919 4.980200 -2.576907 55.482281 9.331865 17.400064 -10.273852 27.188359 0.816131 5.228498 0.598151 0.197036 
